<svg clip-rule="evenodd" fill-rule="evenodd" stroke-linejoin="round" stroke-miterlimit="2" viewBox="0 0 560 400" xmlns="http://www.w3.org/2000/svg"><g fill-rule="nonzero" transform="matrix(2.2871 0 0 2.2871 64.2151 154.996)"><path d="m185.514 9.023c-.88-.884-2.073-1.38-3.318-1.38s-2.439.496-3.319 1.38l-2.132 2.138-9.103-9.12c-2.716-2.719-7.114-2.719-9.829 0l13.992 14.048-14.004 14.047c1.303 1.308 3.071 2.043 4.914 2.043 1.844 0 3.612-.735 4.915-2.043l15.829-15.846c1.362-1.422 3.276-2.174 5.239-2.058z"/><path d="m166.981 16.101-9.724-9.75c-1.303-1.308-3.071-2.043-4.915-2.043-1.843 0-3.611.735-4.914 2.043l9.708 9.738-9.708 9.738c1.303 1.308 3.071 2.043 4.914 2.043 1.844 0 3.612-.735 4.915-2.043z"/><path d="m13.54 24.101-1.793-2.567c-.258-.356-.351-.404-.77-.404h-4.67v8.942c0 .404.064.452.403.452h6.589c.447 0 .511-.064.737-.404l2.821-4.447h.403v6.133h-17.26v-.449l2.821-1.54c.286-.162.35-.259.35-.643v-17.305c0-.384-.064-.482-.35-.643l-2.821-1.524v-.465h17.062v6.197h-.403l-2.607-4.495c-.193-.404-.29-.404-.705-.404h-6.625c-.351 0-.403.064-.403.452v8.845h4.658c.403 0 .512-.065.77-.404l1.793-2.535h.383v7.208z"/><path d="m29.897 31.806v-.404l2.37-1.444c.351-.226.403-.291.403-.642.032-1.059.032-5.138.032-6.646-.02-4.075-1.555-5.053-3.284-5.053s-3.075 1.156-3.969 2.83v8.893c-.04.265.1.525.342.639l2.418 1.443v.404h-8.394v-.404l2.418-1.443c.241-.117.377-.378.334-.643v-9.985c.035-.245-.063-.49-.258-.643l-2.494-2.215v-.404h5.279v3.084c.931-1.863 2.563-3.468 5.219-3.468 2.417 0 4.13 1.156 4.864 3.501 1.184-2.28 2.82-3.501 5.315-3.501 3.135 0 5.186 2.118 5.186 6.468 0 2.154-.032 4.657-.064 7.163-.04.269.103.531.35.643l2.418 1.443v.404h-8.402v-.404l2.37-1.443c.35-.227.403-.291.403-.643.032-1.059.032-5.138.032-6.646 0-4.079-1.535-5.073-3.224-5.073-1.793 0-3.139 1.213-4.066 2.951.079.535.122 1.076.129 1.617 0 2.154-.032 4.657-.065 7.163-.041.254.081.507.307.631l2.418 1.443v.404z"/><path d="m48.721 39.353v-.384l2.398-1.447c.251-.108.397-.373.354-.643v-17.528c.035-.245-.063-.49-.258-.643l-2.494-2.215v-.404h5.279v2.83c1.185-2.345 3.01-3.21 5.025-3.21 3.458 0 6.371 2.793 6.371 7.769 0 5.66-3.651 8.704-7.233 8.704-1.424.05-2.804-.498-3.808-1.512v5.954c0 .405.06.514.403.675l3.711 1.67v.384zm13.504-15.668c0-3.663-1.697-6.197-4.223-6.197-1.346 0-2.721.739-3.647 2.631v8.926c.686 1.108 1.899 1.778 3.199 1.766 2.43 0 4.671-2.215 4.671-7.126z"/><path d="m67.383 24.101c0-5.255 3.55-8.38 7.681-8.38 4.03 0 7.487 2.89 7.487 8.085 0 5.255-3.55 8.38-7.68 8.38-4.034.008-7.488-2.882-7.488-8.085zm11.84-.129c0-3.691-1.374-6.966-4.32-6.966-2.849 0-4.191 3.145-4.191 6.933 0 3.695 1.374 6.969 4.384 6.969 2.785 0 4.127-3.145 4.127-6.936z"/><path d="m87.931 18.595 3.647 9.763 3.301-8.223-.544-1.54c-.108-.287-.273-.55-.484-.772l-1.31-1.346v-.404h7.105v.404l-2.208 1.54c-.258.162-.286.255-.194.546l3.426 9.665 4.001-9.762c.097-.223.065-.32-.129-.449l-2.526-1.54v-.404h6.242v.404l-1.793 1.617c-.212.148-.37.363-.448.61l-5.347 13.098h-1.374l-3.748-9.92-4.03 9.92h-1.378l-5.154-13.207c-.106-.288-.269-.55-.48-.772l-1.314-1.346v-.404h7.173v.404l-2.24 1.54c-.274.174-.274.271-.194.578z"/><path d="m111.627 23.446c0 5.17 2.688 6.71 5.186 6.71 1.862-.011 3.63-.817 4.864-2.215l.319.259c-1.149 2.729-3.518 4.014-6.239 4.014-3.937 0-7.14-2.664-7.14-8.061 0-5.586 3.268-8.412 7.044-8.412 3.361 0 6.016 1.896 6.016 7.034v.671zm.032-1.213h7.072c-.124-3.234-1.12-5.198-3.264-5.198-1.99-.029-3.59 1.803-3.816 5.17z"/><path d="m129.39 29.053v-7.159c.379-1.164 1.612-4.249 3.656-4.249 1.499 0 2.732.991 2.732 5.049v.752h2.897v-1.249c0-4.313-1.858-6.423-4.678-6.423-3.031 0-4.316 2.87-4.961 4.697v-4.33h-5.239v.405l2.482 2.203c.194.151.292.395.258.638v9.945c.04.268-.104.529-.35.639l-2.39 1.439v.38h9.716v-.38l-3.695-1.666c-.363-.178-.428-.275-.428-.691z"/></g></svg>