<svg xmlns="http://www.w3.org/2000/svg" version="1.1" xmlns:xlink="http://www.w3.org/1999/xlink" xmlns:svgjs="http://svgjs.dev/svgjs" width="1000" height="1000" viewBox="0 0 1000 1000"><rect width="1000" height="1000" fill="#046380"></rect><g transform="matrix(0.7,0,0,0.7,149.5757711628499,282.1654016194333)"><svg viewBox="0 0 396 247" data-background-color="#046380" preserveAspectRatio="xMidYMid meet" height="623" width="1000" xmlns="http://www.w3.org/2000/svg" xmlns:xlink="http://www.w3.org/1999/xlink"><g id="tight-bounds" transform="matrix(1,0,0,1,0.23999231358777706,-0.09999999999999432)"><svg viewBox="0 0 395.52 247.2" height="247.2" width="395.52"><g><svg></svg></g><g><svg viewBox="0 0 395.52 247.2" height="247.2" width="395.52"><g><g><path xmlns="http://www.w3.org/2000/svg" d="M137.387 48.235c-4.151-8.257-10.671-14.913-19.56-19.966-8.934-5.054-20.553-7.58-34.857-7.58h-61.658l0 34.851-20.305 0v-52.246h81.963c17.597 0 32.397 3.046 44.4 9.137 12.002 6.046 21.094 14.439 27.276 25.178 3.176 5.518 5.537 11.495 7.081 17.931l-21.279 0c-0.849-2.5-1.87-4.934-3.061-7.305zM21.312 243.906h-20.305l0-52.246h20.305zM394.513 215.344c-2.752 3.971-7.49 8.415-14.213 13.333-6.723 4.963-15.747 9.295-27.073 12.995-11.371 3.7-25.471 5.55-42.302 5.55-18.861 0-35.556-4.49-50.085-13.469-14.574-8.979-25.945-21.704-34.112-38.173-0.643-1.289-1.26-2.595-1.852-3.92l22.276 0c6.052 11.213 13.999 20.145 23.841 26.797 11.416 7.716 24.772 11.574 40.068 11.574 12.228 0 22.606-1.196 31.134-3.587 8.528-2.346 15.454-5.144 20.778-8.393 5.279-3.249 9.069-6.249 11.371-9.002l0-17.389h20.169zM225.713 50.672c7.535-16.154 18.297-28.63 32.284-37.428 13.988-8.844 30.57-13.266 49.747-13.266 17.868 0 32.916 3.091 45.144 9.272 12.228 6.182 21.771 14.642 28.63 25.381 4.155 6.463 7.353 13.432 9.596 20.909h-21.271c-1.48-3.831-3.273-7.529-5.381-11.095-4.873-8.122-11.912-14.665-21.117-19.628-9.205-4.963-21.072-7.445-35.601-7.445-15.657 0-28.9 3.768-39.729 11.303-9.555 6.621-17.072 15.576-22.551 26.865l-21.876 0c0.671-1.652 1.38-3.275 2.125-4.868z" fill="#ffffff" fill-rule="nonzero" stroke="none" stroke-width="1" stroke-linecap="butt" stroke-linejoin="miter" stroke-miterlimit="10" stroke-dasharray="" stroke-dashoffset="0" font-family="none" font-weight="none" font-size="none" text-anchor="none" style="mix-blend-mode: normal" data-fill-palette-color="tertiary"></path></g></g><g transform="matrix(1,0,0,1,0,72.87090231321221)"><svg viewBox="0 0 395.52 101.45819537357558" height="101.45819537357558" width="395.52"><g><svg viewBox="0 0 395.52 101.45819537357558" height="101.45819537357558" width="395.52"><g><svg viewBox="0 0 604.8230993341266 155.1483115359358" height="101.45819537357558" width="395.52"><g transform="matrix(1,0,0,1,209.30309933412659,21.442349857716167)"><svg viewBox="0 0 395.52 112.26361182050346" height="112.26361182050346" width="395.52"><g><svg viewBox="0 0 395.52 112.26361182050346" height="112.26361182050346" width="395.52"><g><svg viewBox="0 0 395.52 112.26361182050346" height="112.26361182050346" width="395.52"><g transform="matrix(1,0,0,1,0,0)"><svg width="395.52" viewBox="4.519999980926514 -37.5 133.8199920654297 37.9900016784668" height="112.26361182050346" data-palette-color="#ffffff"><path d="M16.63-14.48L6.47-14.48 6.47-17.04 16.63-17.04Q19.8-17.04 21.78-18.08 23.75-19.12 24.67-20.9 25.59-22.68 25.59-24.9L25.59-24.9Q25.59-27.08 24.67-28.91 23.75-30.74 21.78-31.86 19.8-32.98 16.63-32.98L16.63-32.98 7.52-32.98 7.52 0 4.52 0 4.52-35.55 16.63-35.55Q20.53-35.55 23.19-34.2 25.85-32.86 27.22-30.48 28.59-28.1 28.59-24.95L28.59-24.95Q28.59-21.68 27.23-19.32 25.88-16.97 23.21-15.72 20.53-14.48 16.63-14.48L16.63-14.48ZM50.41-4.74L50.41-18.36Q50.41-21.19 48.65-22.83 46.9-24.46 43.6-24.46L43.6-24.46Q41.55-24.46 39.95-23.74 38.35-23.02 37.44-21.81 36.52-20.61 36.52-19.12L36.52-19.12 33.59-19.14Q33.59-21.14 34.87-22.91 36.15-24.68 38.44-25.79 40.72-26.9 43.72-26.9L43.72-26.9Q46.56-26.9 48.72-25.95 50.88-25 52.11-23.1 53.34-21.19 53.34-18.31L53.34-18.31 53.34-5.54Q53.34-4.17 53.55-2.71 53.76-1.25 54.15-0.29L54.15-0.29 54.15 0 51.02 0Q50.73-0.88 50.57-2.21 50.41-3.54 50.41-4.74L50.41-4.74ZM51.1-15.38L51.14-13.13 45.41-13.13Q40.94-13.13 38.41-11.56 35.89-9.99 35.89-7.28L35.89-7.28Q35.89-5.13 37.49-3.61 39.08-2.1 41.82-2.1L41.82-2.1Q44.26-2.1 46.13-2.99 48-3.88 49.2-5.37 50.41-6.86 50.85-8.59L50.85-8.59 52.12-6.91Q51.8-5.69 50.96-4.41 50.12-3.13 48.78-2.01 47.43-0.9 45.62-0.21 43.8 0.49 41.5 0.49L41.5 0.49Q38.91 0.49 37-0.49 35.08-1.46 34.02-3.16 32.96-4.86 32.96-7.01L32.96-7.01Q32.96-10.91 36.19-13.15 39.43-15.38 45.02-15.38L45.02-15.38 51.1-15.38ZM78.07-6.1L78.07-26.42 81-26.42 81 0 78.17 0 78.07-6.1ZM78.61-10.99L80.12-11.04Q80.12-7.71 79.07-5.11 78.02-2.51 75.73-1.01 73.43 0.49 69.72 0.49L69.72 0.49Q65.84 0.49 63.43-1.82 61.03-4.13 61.03-9.52L61.03-9.52 61.03-26.42 63.96-26.42 63.96-9.47Q63.96-6.64 64.79-5.03 65.62-3.42 67-2.73 68.38-2.05 70.06-2.05L70.06-2.05Q73.29-2.05 75.15-3.3 77.02-4.54 77.81-6.59 78.61-8.64 78.61-10.99L78.61-10.99ZM91.86-37.5L91.86 0 88.96 0 88.96-37.5 91.86-37.5ZM138.34-16.89L138.34-4.22Q137.73-3.34 136.24-2.25 134.75-1.15 132.24-0.33 129.72 0.49 125.99 0.49L125.99 0.49Q121.81 0.49 118.59-1.5 115.37-3.49 113.55-7.14 111.73-10.79 111.73-15.75L111.73-15.75 111.73-20.07Q111.73-24.98 113.4-28.55 115.08-32.13 118.18-34.08 121.28-36.04 125.52-36.04L125.52-36.04Q129.48-36.04 132.19-34.67 134.9-33.3 136.43-30.92 137.95-28.54 138.32-25.54L138.32-25.54 135.31-25.54Q134.97-27.66 133.9-29.47 132.82-31.27 130.79-32.37 128.75-33.47 125.52-33.47L125.52-33.47Q122.06-33.47 119.65-31.8 117.25-30.13 116-27.12 114.76-24.12 114.76-20.12L114.76-20.12 114.76-15.75Q114.76-11.62 116.16-8.54 117.57-5.47 120.09-3.76 122.62-2.05 126.01-2.05L126.01-2.05Q128.72-2.05 130.61-2.58 132.51-3.1 133.68-3.82 134.85-4.54 135.36-5.15L135.36-5.15 135.36-14.36 125.82-14.36 125.82-16.89 138.34-16.89Z" opacity="1" transform="matrix(1,0,0,1,0,0)" fill="#ffffff" class="undefined-text-0" data-fill-palette-color="primary" id="text-0"></path></svg></g></svg></g></svg></g></svg></g><g><svg viewBox="0 0 182.8003549099894 155.1483115359358" height="155.1483115359358" width="182.8003549099894"><g><svg xmlns="http://www.w3.org/2000/svg" xmlns:xlink="http://www.w3.org/1999/xlink" version="1.1" x="0" y="0" viewBox="0.16599999368190765 4.0320000648498535 50.23500061035156 42.6359977722168" enable-background="new 0 0 50.4 50.4" xml:space="preserve" width="182.8003549099894" height="155.1483115359358" class="icon-icon-0" data-fill-palette-color="accent" id="icon-0"><g fill="#ffffff" data-fill-palette-color="accent"><rect x="0.166" y="31.438" width="3.515" height="3.518" fill="#ffffff" data-fill-palette-color="accent"></rect><rect x="5.93" y="31.438" width="3.515" height="3.518" fill="#ffffff" data-fill-palette-color="accent"></rect><rect x="11.834" y="31.438" width="3.516" height="3.518" fill="#ffffff" data-fill-palette-color="accent"></rect><rect x="17.599" y="31.438" width="3.514" height="3.518" fill="#ffffff" data-fill-palette-color="accent"></rect><rect x="23.502" y="31.438" width="3.515" height="3.518" fill="#ffffff" data-fill-palette-color="accent"></rect><rect x="29.267" y="31.438" width="3.515" height="3.518" fill="#ffffff" data-fill-palette-color="accent"></rect><rect x="35.17" y="31.438" width="3.517" height="3.518" fill="#ffffff" data-fill-palette-color="accent"></rect><rect x="40.937" y="31.438" width="3.515" height="3.518" fill="#ffffff" data-fill-palette-color="accent"></rect><rect x="0.166" y="37.269" width="3.515" height="3.514" fill="#ffffff" data-fill-palette-color="accent"></rect><rect x="5.93" y="37.269" width="3.515" height="3.514" fill="#ffffff" data-fill-palette-color="accent"></rect><rect x="11.834" y="37.269" width="3.516" height="3.514" fill="#ffffff" data-fill-palette-color="accent"></rect><rect x="17.599" y="37.269" width="3.514" height="3.514" fill="#ffffff" data-fill-palette-color="accent"></rect><rect x="23.502" y="37.269" width="3.515" height="3.514" fill="#ffffff" data-fill-palette-color="accent"></rect><rect x="29.267" y="37.269" width="3.515" height="3.514" fill="#ffffff" data-fill-palette-color="accent"></rect><rect x="35.17" y="37.269" width="3.517" height="3.514" fill="#ffffff" data-fill-palette-color="accent"></rect><rect x="40.937" y="37.269" width="3.515" height="3.514" fill="#ffffff" data-fill-palette-color="accent"></rect><rect x="0.166" y="43.154" width="3.515" height="3.514" fill="#ffffff" data-fill-palette-color="accent"></rect><rect x="5.93" y="43.154" width="3.515" height="3.514" fill="#ffffff" data-fill-palette-color="accent"></rect><rect x="11.834" y="43.154" width="26.853" height="3.514" fill="#ffffff" data-fill-palette-color="accent"></rect><rect x="40.937" y="43.154" width="3.515" height="3.514" fill="#ffffff" data-fill-palette-color="accent"></rect><rect x="46.887" y="31.438" width="3.514" height="3.518" fill="#ffffff" data-fill-palette-color="accent"></rect><rect x="46.887" y="37.269" width="3.514" height="3.514" fill="#ffffff" data-fill-palette-color="accent"></rect><rect x="46.887" y="43.154" width="3.514" height="3.514" fill="#ffffff" data-fill-palette-color="accent"></rect><rect x="6" y="4.032" width="38.521" height="24.06" fill="#ffffff" data-fill-palette-color="accent"></rect></g></svg></g></svg></g></svg></g></svg></g></svg></g></svg></g><defs></defs></svg><rect width="395.52" height="247.2" fill="none" stroke="none" visibility="hidden"></rect></g></svg></g></svg>